<svg width="136" height="28" viewBox="0 0 136 28" fill="none" xmlns="http://www.w3.org/2000/svg">
<path d="M12.9205 10.7642L9.6392 11.1222C9.5464 10.7907 9.384 10.4792 9.15199 10.1875C8.92661 9.89583 8.62169 9.66051 8.23722 9.48153C7.85275 9.30256 7.3821 9.21307 6.82528 9.21307C6.07623 9.21307 5.4465 9.37547 4.93608 9.70028C4.43229 10.0251 4.18371 10.446 4.19034 10.9631C4.18371 11.4072 4.34612 11.7685 4.67756 12.0469C5.01563 12.3253 5.57244 12.554 6.34801 12.733L8.95312 13.2898C10.3982 13.6013 11.4721 14.0952 12.1747 14.7713C12.884 15.4474 13.242 16.3324 13.2486 17.4261C13.242 18.3873 12.9602 19.2358 12.4034 19.9716C11.8532 20.7008 11.0876 21.2708 10.1065 21.6818C9.12547 22.0928 7.99858 22.2983 6.72585 22.2983C4.85653 22.2983 3.3518 21.9072 2.21165 21.125C1.0715 20.3362 0.392045 19.2391 0.173295 17.8338L3.68324 17.4957C3.84233 18.1851 4.1804 18.7055 4.69744 19.0568C5.21449 19.4081 5.88731 19.5838 6.71591 19.5838C7.57102 19.5838 8.2571 19.4081 8.77415 19.0568C9.29782 18.7055 9.55966 18.2713 9.55966 17.7543C9.55966 17.3168 9.39063 16.9555 9.05256 16.6705C8.72112 16.3854 8.20407 16.1667 7.50142 16.0142L4.89631 15.4673C3.43134 15.1624 2.34754 14.6487 1.64489 13.9261C0.942235 13.197 0.594224 12.2756 0.600852 11.1619C0.594224 10.2206 0.849432 9.4053 1.36648 8.71591C1.89015 8.01989 2.616 7.48295 3.54403 7.10511C4.47869 6.72064 5.55587 6.52841 6.77557 6.52841C8.56534 6.52841 9.97396 6.90956 11.0014 7.67188C12.0355 8.43419 12.6752 9.46496 12.9205 10.7642ZM19.8161 13.0511V22H16.2166V1.63636H19.7365V9.32244H19.9155C20.2734 8.4607 20.8269 7.78125 21.576 7.28409C22.3317 6.7803 23.2929 6.52841 24.4595 6.52841C25.5201 6.52841 26.4448 6.75047 27.2337 7.1946C28.0225 7.63873 28.6323 8.28835 29.0632 9.14347C29.5007 9.99858 29.7195 11.0426 29.7195 12.2756V22H26.12V12.8324C26.12 11.8049 25.8549 11.0062 25.3246 10.4361C24.8009 9.85937 24.0651 9.57102 23.1172 9.57102C22.4808 9.57102 21.9107 9.71023 21.407 9.98864C20.9098 10.2604 20.5187 10.6548 20.2337 11.1719C19.9553 11.6889 19.8161 12.3153 19.8161 13.0511ZM33.3885 22V6.72727H36.9879V22H33.3885ZM35.1982 4.55966C34.6281 4.55966 34.1375 4.37074 33.7266 3.9929C33.3156 3.60843 33.1101 3.14773 33.1101 2.61079C33.1101 2.06723 33.3156 1.60653 33.7266 1.22869C34.1375 0.844223 34.6281 0.651988 35.1982 0.651988C35.7749 0.651988 36.2654 0.844223 36.6697 1.22869C37.0807 1.60653 37.2862 2.06723 37.2862 2.61079C37.2862 3.14773 37.0807 3.60843 36.6697 3.9929C36.2654 4.37074 35.7749 4.55966 35.1982 4.55966ZM40.6893 27.7273V6.72727H44.229V9.25284H44.4379C44.6235 8.88163 44.8853 8.48722 45.2234 8.0696C45.5614 7.64536 46.0188 7.28409 46.5955 6.98579C47.1722 6.68087 47.908 6.52841 48.8029 6.52841C49.9828 6.52841 51.0468 6.83002 51.9947 7.43324C52.9492 8.02983 53.7049 8.91477 54.2617 10.0881C54.8252 11.2547 55.1069 12.6866 55.1069 14.3835C55.1069 16.0606 54.8318 17.4858 54.2816 18.6591C53.7314 19.8324 52.9824 20.7273 52.0344 21.3438C51.0865 21.9602 50.0127 22.2685 48.8129 22.2685C47.9379 22.2685 47.212 22.1226 46.6353 21.831C46.0586 21.5393 45.5946 21.188 45.2433 20.777C44.8986 20.3594 44.6301 19.965 44.4379 19.5938H44.2887V27.7273H40.6893ZM44.2191 14.3636C44.2191 15.3513 44.3583 16.2164 44.6367 16.9588C44.9218 17.7012 45.3294 18.2812 45.8597 18.6989C46.3967 19.1098 47.0463 19.3153 47.8086 19.3153C48.604 19.3153 49.2702 19.1032 49.8072 18.679C50.3441 18.2481 50.7485 17.6615 51.0202 16.919C51.2987 16.17 51.4379 15.3182 51.4379 14.3636C51.4379 13.4157 51.302 12.5739 51.0302 11.8381C50.7584 11.1023 50.354 10.5256 49.8171 10.108C49.2802 9.69034 48.6107 9.48153 47.8086 9.48153C47.0397 9.48153 46.3867 9.68371 45.8498 10.0881C45.3129 10.4924 44.9052 11.0592 44.6268 11.7884C44.355 12.5175 44.2191 13.3759 44.2191 14.3636Z" fill="#E6EDF3"/>
<path d="M69.4748 22V24.8736H56.32V22H69.4748ZM77.9489 22.2983C76.4242 22.2983 75.1151 21.9635 74.0213 21.294C72.9342 20.6245 72.0956 19.6998 71.5057 18.5199C70.9223 17.3333 70.6307 15.9678 70.6307 14.4233C70.6307 12.8722 70.929 11.5033 71.5256 10.3168C72.1222 9.12358 72.964 8.19555 74.0511 7.53267C75.1449 6.86316 76.4375 6.52841 77.929 6.52841C79.1686 6.52841 80.2656 6.7571 81.2202 7.21449C82.1813 7.66525 82.947 8.30492 83.517 9.13352C84.0871 9.95549 84.4119 10.9167 84.4915 12.017H81.0511C80.9119 11.2812 80.5805 10.6681 80.0568 10.1776C79.5398 9.6804 78.8471 9.43182 77.9787 9.43182C77.2429 9.43182 76.5966 9.63068 76.0398 10.0284C75.483 10.4195 75.0488 10.983 74.7372 11.7188C74.4323 12.4545 74.2798 13.3362 74.2798 14.3636C74.2798 15.4044 74.4323 16.2992 74.7372 17.0483C75.0421 17.7907 75.4697 18.3641 76.0199 18.7685C76.5767 19.1662 77.2296 19.3651 77.9787 19.3651C78.509 19.3651 78.983 19.2656 79.4006 19.0668C79.8248 18.8613 80.1795 18.5663 80.4645 18.1818C80.7495 17.7973 80.9451 17.33 81.0511 16.7798H84.4915C84.4053 17.8603 84.0871 18.8182 83.5369 19.6534C82.9867 20.482 82.2377 21.1316 81.2898 21.6023C80.3419 22.0663 79.2282 22.2983 77.9489 22.2983ZM94.109 22.2983C92.6175 22.2983 91.3249 21.9702 90.2312 21.3139C89.1374 20.6577 88.2889 19.7396 87.6857 18.5597C87.0891 17.3797 86.7908 16.0009 86.7908 14.4233C86.7908 12.8456 87.0891 11.4635 87.6857 10.277C88.2889 9.09043 89.1374 8.16903 90.2312 7.51278C91.3249 6.85653 92.6175 6.52841 94.109 6.52841C95.6005 6.52841 96.8931 6.85653 97.9869 7.51278C99.0806 8.16903 99.9258 9.09043 100.522 10.277C101.126 11.4635 101.427 12.8456 101.427 14.4233C101.427 16.0009 101.126 17.3797 100.522 18.5597C99.9258 19.7396 99.0806 20.6577 97.9869 21.3139C96.8931 21.9702 95.6005 22.2983 94.109 22.2983ZM94.1289 19.4148C94.9376 19.4148 95.6138 19.1927 96.1573 18.7486C96.7009 18.2978 97.1052 17.6946 97.3704 16.9389C97.6422 16.1832 97.7781 15.3414 97.7781 14.4134C97.7781 13.4787 97.6422 12.6335 97.3704 11.8778C97.1052 11.1155 96.7009 10.509 96.1573 10.0582C95.6138 9.60748 94.9376 9.3821 94.1289 9.3821C93.3003 9.3821 92.6109 9.60748 92.0607 10.0582C91.5172 10.509 91.1095 11.1155 90.8377 11.8778C90.5726 12.6335 90.44 13.4787 90.44 14.4134C90.44 15.3414 90.5726 16.1832 90.8377 16.9389C91.1095 17.6946 91.5172 18.2978 92.0607 18.7486C92.6109 19.1927 93.3003 19.4148 94.1289 19.4148ZM110.15 22.2685C108.95 22.2685 107.876 21.9602 106.928 21.3438C105.98 20.7273 105.231 19.8324 104.681 18.6591C104.131 17.4858 103.856 16.0606 103.856 14.3835C103.856 12.6866 104.134 11.2547 104.691 10.0881C105.254 8.91477 106.013 8.02983 106.968 7.43324C107.923 6.83002 108.987 6.52841 110.16 6.52841C111.055 6.52841 111.79 6.68087 112.367 6.98579C112.944 7.28409 113.401 7.64536 113.739 8.0696C114.077 8.48722 114.339 8.88163 114.525 9.25284H114.674V1.63636H118.283V22H114.744V19.5938H114.525C114.339 19.965 114.071 20.3594 113.719 20.777C113.368 21.188 112.904 21.5393 112.327 21.831C111.751 22.1226 111.025 22.2685 110.15 22.2685ZM111.154 19.3153C111.916 19.3153 112.566 19.1098 113.103 18.6989C113.64 18.2812 114.048 17.7012 114.326 16.9588C114.604 16.2164 114.744 15.3513 114.744 14.3636C114.744 13.3759 114.604 12.5175 114.326 11.7884C114.054 11.0592 113.65 10.4924 113.113 10.0881C112.583 9.68371 111.93 9.48153 111.154 9.48153C110.352 9.48153 109.683 9.69034 109.146 10.108C108.609 10.5256 108.204 11.1023 107.933 11.8381C107.661 12.5739 107.525 13.4157 107.525 14.3636C107.525 15.3182 107.661 16.17 107.933 16.919C108.211 17.6615 108.619 18.2481 109.156 18.679C109.699 19.1032 110.365 19.3153 111.154 19.3153ZM128.88 22.2983C127.349 22.2983 126.027 21.9801 124.913 21.3438C123.806 20.7008 122.954 19.7926 122.358 18.6193C121.761 17.4394 121.463 16.0507 121.463 14.4531C121.463 12.8821 121.761 11.5033 122.358 10.3168C122.961 9.12358 123.803 8.19555 124.883 7.53267C125.964 6.86316 127.233 6.52841 128.691 6.52841C129.633 6.52841 130.521 6.68087 131.356 6.98579C132.198 7.28409 132.94 7.74811 133.583 8.37784C134.233 9.00758 134.743 9.80966 135.115 10.7841C135.486 11.7519 135.672 12.9053 135.672 14.2443V15.348H123.153V12.9219H132.221C132.215 12.2325 132.065 11.6193 131.774 11.0824C131.482 10.5388 131.074 10.1113 130.551 9.79972C130.034 9.48816 129.431 9.33239 128.741 9.33239C128.005 9.33239 127.359 9.51136 126.802 9.86932C126.245 10.2206 125.811 10.6847 125.5 11.2614C125.195 11.8314 125.039 12.4579 125.032 13.1406V15.2585C125.032 16.1468 125.195 16.9091 125.52 17.5455C125.844 18.1752 126.298 18.6591 126.882 18.9972C127.465 19.3286 128.148 19.4943 128.93 19.4943C129.454 19.4943 129.928 19.4214 130.352 19.2756C130.776 19.1231 131.144 18.901 131.456 18.6094C131.767 18.3177 132.002 17.9564 132.162 17.5256L135.522 17.9034C135.31 18.7917 134.906 19.5672 134.309 20.2301C133.719 20.8864 132.964 21.3968 132.042 21.7614C131.121 22.1193 130.067 22.2983 128.88 22.2983Z" fill="#FFC800"/>
</svg>
